{"title":"Tool - Lateralus - HDCD remaster by MC Lurken 16-bit 44.1kHz fla","uid":7371558,"size":524926008,"categoryP":"audio","categoryS":"flac","magnet":"?xt=urn:btih:1eaec2a3490a3208d631842fd31661fbe3745082&amp;dn=Tool+-+Lateralus+-+HDCD+remaster+by+MC+Lurken+16-bit+44.1kHz+fla&amp;tr=udp%3A%2F%2Ftracker.openbittorrent.com%3A80&amp;tr=udp%3A%2F%2Fopen.demonii.com%3A1337&amp;tr=udp%3A%2F%2Ftracker.coppersurfer.tk%3A6969&amp;tr=udp%3A%2F%2Fexodus.desync.com%3A6969","seeders":1,"leechers":0,"uploader":"beavis39","files":-1,"time":1340243850,"description":"Tool - Lateralus - HDCD remaster by MC Lurken (a.k.a. Beavis39)\n\n\n\n!!!!!!!!!!!!!THIS IS NOT AN OFFICIAL REMASTER, THIS IS A FAN RELEASE!!!!!!!!!!!!!!\n!!!!!!!!!!!!!THIS IS NOT AN OFFICIAL REMASTER, THIS IS A FAN RELEASE!!!!!!!!!!!!!!\n!!!!!!!!!!!!!THIS IS NOT AN OFFICIAL REMASTER, THIS IS A FAN RELEASE!!!!!!!!!!!!!!\n\n\n\n1 - The Grudge\n2 - Eon Blue Apocalypse\n3 - The Patient\n4 - Mantra\n5 - Schism\n6 - Parabol\n7 - Parabola\n8 - Ticks &amp; Leeches\n9 - Lateralus\n10 - Disposition\n11 - Reflection\n12 - Triad\n13 - Faaip de Oiad\n\n\n\n\nfoobar2000 1.1.11 / Dynamic Range Meter 1.1.1\nlog date: 2012-06-20 03:12:59\n\n--------------------------------------------------------------------------------\nAnalyzed: ? / ?\n--------------------------------------------------------------------------------\n\nDR         Peak         RMS     Duration Track\n--------------------------------------------------------------------------------\nDR9       -0.54 dB   -11.62 dB      8:36 ?-01 - The Grudge\nDR17      -8.01 dB   -30.18 dB      1:05 ?-02 - Eon Blue Apocalypse\nDR9       -0.64 dB   -13.14 dB      7:14 ?-03 - The Patient\nDR11      -9.16 dB   -23.35 dB      1:13 ?-04 - Mantra\nDR9       -0.62 dB   -12.35 dB      6:48 ?-05 - Schism\nDR9       -2.74 dB   -22.20 dB      3:04 ?-06 - Parabol\nDR9       -0.64 dB   -11.40 dB      6:04 ?-07 - Parabola\nDR9       -0.63 dB   -12.36 dB      8:10 ?-08 - Ticks &amp; Leeches\nDR8       -0.63 dB   -11.65 dB      9:24 ?-09 - Lateralus\nDR12      -3.06 dB   -19.21 dB      4:46 ?-10 - Disposition\nDR10      -0.64 dB   -12.76 dB     11:08 ?-11 - Reflection\nDR9       -0.63 dB   -13.14 dB      8:47 ?-12 - Triad\nDR10      -0.53 dB   -14.82 dB      2:39 ?-13 - Faaip de Oiad\n--------------------------------------------------------------------------------\n\nNumber of tracks:  13\nOfficial DR value: DR10\n\nSamplerate:        44100 Hz\nChannels:          2\nBits per sample:   16\nBitrate:           1411 kbps\nCodec:             PCM\n\n\n\nAbsolutely no thanks whatsoever to the Green Demon\n\n\nenjoy :)\n","torrent":{"xt":"urn:btih:1eaec2a3490a3208d631842fd31661fbe3745082","amp;dn":"Tool+-+Lateralus+-+HDCD+remaster+by+MC+Lurken+16-bit+44.1kHz+fla","amp;tr":["udp%3A%2F%2Ftracker.openbittorrent.com%3A80","udp%3A%2F%2Fopen.demonii.com%3A1337","udp%3A%2F%2Ftracker.coppersurfer.tk%3A6969","udp%3A%2F%2Fexodus.desync.com%3A6969"],"infoHash":"1eaec2a3490a3208d631842fd31661fbe3745082","infoHashBuffer":{"type":"Buffer","data":[30,174,194,163,73,10,50,8,214,49,132,47,211,22,97,251,227,116,80,130]},"announce":[],"urlList":[]}}